<svg xmlns="http://www.w3.org/2000/svg" viewBox="0 0 101 35">
  <path d="M9.72.92V3.41a.92.92,0,0,1-.91.92H6.42a.92.92,0,0,0-.92.92V29.5a.92.92,0,0,0,.92.92H8.81a.92.92,0,0,1,.91.92V33.8a.91.91,0,0,1-.91.91H.92A.92.92,0,0,1,0,33.8V.92A.92.92,0,0,1,.92,0H8.81A.92.92,0,0,1,9.72.92Z" fill="#03cfbb"/>
  <path d="M27.48,9.45V27.1a.92.92,0,0,1-.91.92h-4a.92.92,0,0,1-.91-.92V9.45a.92.92,0,0,1,.91-.92h4A.92.92,0,0,1,27.48,9.45Z" fill="#03cfbb"/>
  <path d="M40.14,20V17.39a.92.92,0,0,1,.92-.91h9.87a.92.92,0,0,1,.92.91V20a.92.92,0,0,1-.92.92H41.06A.92.92,0,0,1,40.14,20Z" fill="#03cfbb"/>
  <path d="M100.65.92V33.8a.92.92,0,0,1-.92.91H91.84a.91.91,0,0,1-.91-.91V31.3a.92.92,0,0,1,.91-.92h2.39a.92.92,0,0,0,.92-.91V5.25a.92.92,0,0,0-.92-.92H91.84a.92.92,0,0,1-.91-.92V.92A.92.92,0,0,1,91.84,0h7.89A.92.92,0,0,1,100.65.92Z" fill="#03cfbb"/>
  <path d="M69.49,28.67c-.5,1.4-1.32,3.69-1.84,5.1A.91.91,0,0,0,68.51,35H72a.91.91,0,0,0,.86-.61c.61-1.75,2.26-6.59,2.36-6.91L81.08,9.15A.91.91,0,0,0,80.21,8h-4a.92.92,0,0,0-.89.7L72.59,19.9a.91.91,0,0,1-1.78,0L68.34,8.68a.93.93,0,0,0-.9-.72H63.25a.92.92,0,0,0-.88,1.18L67.76,26.8a.92.92,0,0,0,.87.65h0A.9.9,0,0,1,69.49,28.67Z" fill="#03cfbb"/>
</svg>
